<?xml version="1.0" standalone="no"?>
<!DOCTYPE svg PUBLIC "-//W3C//DTD SVG 20010904//EN"
 "http://www.w3.org/TR/2001/REC-SVG-20010904/DTD/svg10.dtd">
<svg version="1.0" xmlns="http://www.w3.org/2000/svg"
 width="960.000000pt" height="960.000000pt" viewBox="0 0 960.000000 960.000000"
 preserveAspectRatio="xMidYMid meet">
<metadata>
Created by potrace 1.11, written by Peter Selinger 2001-2013
</metadata>
<g transform="translate(0.000000,960.000000) scale(0.100000,-0.100000)"
fill="#000000" stroke="none">
<path d="M7059 7836 c-2 -2 -44 -6 -94 -10 -49 -3 -108 -8 -130 -11 -22 -3
-58 -7 -80 -10 -22 -3 -49 -7 -60 -9 -11 -2 -36 -6 -55 -10 -19 -3 -46 -8 -60
-11 -14 -3 -41 -8 -60 -11 -54 -9 -174 -41 -360 -96 -37 -11 -561 -203 -595
-218 -25 -12 -273 -97 -481 -166 -225 -74 -531 -162 -624 -178 -19 -3 -46 -8
-60 -11 -14 -3 -43 -8 -65 -10 -22 -3 -76 -10 -120 -16 -44 -5 -97 -12 -117
-14 -21 -3 -57 -7 -80 -10 -63 -8 -118 -15 -158 -20 -19 -2 -71 -9 -115 -15
-44 -5 -100 -12 -125 -15 -25 -3 -61 -7 -80 -10 -19 -2 -56 -7 -81 -10 -25 -3
-56 -8 -69 -10 -13 -3 -42 -7 -65 -10 -22 -3 -58 -8 -80 -12 -22 -3 -51 -7
-65 -8 -44 -5 -124 -16 -150 -21 -31 -6 -64 -11 -112 -18 -21 -3 -55 -9 -75
-12 -21 -3 -117 -19 -213 -35 -96 -17 -188 -32 -204 -35 -16 -3 -32 -7 -36 -9
-3 -2 -26 -6 -51 -9 -34 -5 -253 -54 -399 -91 -90 -23 -434 -146 -438 -157 -2
-4 -10 -8 -19 -8 -44 0 -452 -222 -558 -304 -139 -106 -190 -151 -276 -236
-193 -193 -344 -417 -427 -637 -16 -43 -33 -87 -37 -98 -4 -11 -9 -24 -11 -30
-23 -78 -67 -234 -70 -247 -2 -10 -6 -26 -8 -35 -11 -43 -38 -171 -42 -198
-18 -106 -25 -151 -29 -185 -17 -141 -20 -197 -20 -365 0 -171 9 -323 20 -357
2 -7 6 -31 9 -53 3 -22 9 -60 15 -85 5 -25 13 -60 16 -79 3 -19 11 -43 17 -55
6 -11 11 -23 10 -26 -6 -20 69 -223 125 -340 35 -71 130 -239 142 -250 3 -3
12 -16 20 -30 64 -115 341 -415 491 -530 24 -19 50 -41 58 -47 17 -16 195
-134 252 -167 61 -36 250 -128 330 -161 88 -36 317 -112 395 -131 6 -1 21 -5
35 -8 49 -12 260 -56 287 -60 52 -8 108 -16 143 -20 19 -3 55 -7 80 -10 212
-28 553 -37 870 -23 74 3 135 6 135 7 0 0 35 3 77 5 110 7 167 13 180 21 7 5
8 3 3 -6 -5 -8 -4 -11 2 -7 9 6 48 11 163 22 25 2 70 7 100 10 30 4 73 8 95
10 22 1 60 6 85 9 122 16 147 19 175 21 46 5 172 21 295 39 19 3 58 8 85 12
28 3 52 7 55 9 3 2 30 6 60 9 30 3 66 8 80 11 61 12 92 18 170 29 32 5 97 17
160 31 14 3 37 6 53 7 15 1 27 5 27 8 0 3 8 6 18 6 24 1 93 13 117 21 11 3 31
7 45 9 14 1 25 3 25 4 0 1 8 3 17 5 9 2 58 12 110 24 51 11 102 22 113 24 11
1 25 5 30 9 8 5 101 27 140 34 6 1 13 3 18 4 4 1 10 3 15 4 4 1 12 4 17 7 10
6 50 17 90 25 11 2 52 13 90 24 39 12 77 23 85 25 20 4 211 65 230 72 20 8 20
8 55 18 17 4 35 10 40 14 6 3 12 6 15 7 3 0 12 3 20 7 73 28 129 45 134 40 3
-4 6 -1 6 5 0 7 20 17 45 23 25 6 45 16 45 22 0 6 3 7 6 4 4 -3 16 -1 28 5 11
7 23 13 26 13 39 10 60 19 60 28 0 6 3 7 7 4 3 -4 11 -2 18 3 6 5 22 11 34 13
13 2 27 10 32 18 5 8 9 11 9 6 0 -4 15 0 33 10 17 9 38 16 45 15 6 -2 12 1 12
6 0 10 56 37 63 31 2 -2 12 4 22 14 9 10 24 16 32 13 8 -3 11 -1 8 4 -3 5 6
12 20 16 14 3 25 10 25 16 0 5 4 7 9 3 5 -3 12 -1 15 4 3 4 32 21 63 37 32 16
61 32 64 37 3 4 15 9 27 10 11 0 19 4 17 7 -2 4 21 20 51 36 29 16 54 32 54
37 0 4 6 7 13 7 8 0 24 9 37 20 13 11 29 20 37 20 7 0 13 5 13 10 0 6 5 10 11
10 6 0 17 7 26 15 8 8 20 12 26 8 7 -3 9 -2 4 2 -9 11 43 46 56 38 6 -3 7 -2
4 4 -7 10 52 49 68 44 6 -1 7 0 3 4 -4 4 16 24 45 45 29 21 62 47 75 57 12 10
27 17 32 16 6 -2 10 3 10 11 0 8 9 18 20 21 11 3 20 11 20 17 0 5 7 7 16 4 8
-3 13 -2 10 2 -5 8 17 31 38 42 6 3 30 24 54 47 24 24 48 40 53 37 5 -3 8 -2
7 3 -4 12 122 129 134 125 5 -1 7 1 4 6 -3 5 18 31 47 59 29 27 81 80 116 119
35 38 68 68 72 67 5 -2 8 1 6 6 -2 9 53 79 108 135 16 17 29 33 30 36 0 3 4 4
8 2 5 -1 6 2 3 6 -7 12 29 54 38 45 4 -4 4 0 0 10 -4 12 -1 17 11 17 9 0 14 4
11 8 -3 5 6 20 20 35 13 14 24 30 25 34 0 4 16 28 35 53 18 25 38 55 44 68 6
14 15 20 22 16 6 -4 8 -3 4 4 -3 6 1 18 10 26 8 9 12 16 7 16 -4 0 -1 6 7 13
8 7 23 28 34 47 10 19 28 51 39 70 80 136 202 385 236 480 7 19 17 44 21 55
35 83 121 380 135 468 3 18 10 55 15 82 6 28 12 70 15 95 3 25 7 59 10 75 2
17 5 51 6 77 1 31 6 45 13 41 6 -4 5 0 -2 9 -10 12 -10 18 -1 23 8 6 8 9 -1
15 -9 5 -9 13 -2 27 8 14 8 23 0 31 -7 7 -8 12 -2 12 5 0 9 23 9 50 0 28 -4
50 -8 50 -5 0 -5 5 -1 12 8 13 11 78 3 78 -3 0 -5 21 -4 48 0 26 -3 70 -7 97
-4 28 -10 74 -13 103 -2 28 -9 69 -14 90 -5 20 -12 55 -16 76 -3 22 -10 45
-15 51 -5 7 -7 14 -4 17 3 4 -2 20 -11 37 -8 17 -13 31 -11 31 9 0 -37 119
-88 226 -201 419 -568 715 -1086 875 -52 16 -108 34 -125 39 -27 8 -99 25
-150 36 -70 14 -124 24 -150 29 -41 7 -239 33 -300 40 -57 7 -521 16 -526 11z"/>
</g>
</svg>
